<?xml version="1.0" standalone="no"?>
<!DOCTYPE svg PUBLIC "-//W3C//DTD SVG 20010904//EN"
 "http://www.w3.org/TR/2001/REC-SVG-20010904/DTD/svg10.dtd">
<svg version="1.0" xmlns="http://www.w3.org/2000/svg"
 width="200.000000pt" height="200.000000pt" viewBox="0 0 200.000000 200.000000"
 preserveAspectRatio="xMidYMid meet">
<metadata>
Created by potrace 1.11, written by Peter Selinger 2001-2013
</metadata>
<g transform="translate(0.000000,200.000000) scale(0.100000,-0.100000)"
fill="#000000" stroke="none">
<path d="M984 1762 c-105 -97 -124 -163 -124 -426 l0 -200 -95 -97 c-95 -96
-95 -96 -95 -147 0 -28 5 -54 10 -57 6 -4 46 5 90 19 43 14 82 26 85 26 3 0 5
-25 5 -55 0 -42 3 -55 15 -55 13 0 15 46 15 354 l0 355 53 3 c28 2 91 2 140 0
l87 -3 0 -355 c0 -308 2 -354 15 -354 16 0 17 4 17 68 0 23 2 42 4 42 2 0 38
-11 80 -25 106 -35 104 -35 104 33 l0 57 -93 94 -93 93 0 182 c1 194 -10 280
-45 348 -20 40 -110 138 -126 138 -5 0 -27 -17 -49 -38z m94 -46 c42 -46 75
-108 85 -163 l6 -32 -52 -3 c-29 -2 -91 -2 -138 0 l-87 3 9 41 c5 22 19 58 30
79 21 41 86 119 99 119 4 0 26 -20 48 -44z m-225 -796 c-8 -8 -131 -50 -145
-50 -4 0 -7 12 -6 28 1 19 23 49 77 105 l76 78 3 -77 c2 -43 -1 -80 -5 -84z
m435 77 c55 -56 72 -79 72 -101 0 -18 -4 -27 -12 -24 -7 3 -42 15 -78 27 l-65
21 0 75 c0 41 2 75 5 75 3 0 38 -33 78 -73z"/>
<path d="M976 1403 c-3 -4 -6 -33 -6 -65 l0 -58 60 0 c65 0 61 -4 64 65 3 50
-8 61 -62 62 -28 1 -53 -1 -56 -4z m82 -57 c-2 -25 -8 -31 -30 -33 -25 -2 -28
1 -28 30 0 29 3 32 30 32 28 1 31 -2 28 -29z"/>
<path d="M970 1205 c0 -14 10 -17 65 -17 48 0 55 2 55 17 0 12 -13 15 -60 15
-47 0 -60 -3 -60 -15z"/>
<path d="M979 1119 c-24 -14 3 -26 56 -26 46 0 55 2 53 15 -2 12 -16 17 -51
17 -26 1 -52 -2 -58 -6z"/>
<path d="M1018 1018 c-2 -7 -4 -38 -4 -68 1 -42 5 -55 16 -55 12 0 15 14 15
64 0 39 -4 66 -11 68 -6 2 -14 -2 -16 -9z"/>
<path d="M549 833 c-1 -15 -2 -32 -4 -38 -1 -5 -3 -15 -3 -21 -1 -6 -18 -14
-36 -17 -73 -12 -158 -98 -172 -173 -6 -32 -8 -34 -50 -34 -44 0 -64 -12 -42
-27 7 -4 28 -8 46 -8 31 0 35 -3 52 -54 23 -70 81 -128 151 -151 51 -18 54
-21 55 -53 2 -70 34 -74 34 -4 l0 42 573 -1 c314 0 583 3 596 8 24 9 15 19
-169 203 -107 107 -199 195 -205 195 -5 0 -35 -26 -67 -57 l-57 -57 -106 105
c-58 57 -109 105 -113 107 -4 1 -39 -29 -77 -68 -54 -55 -67 -72 -57 -82 10
-10 23 -1 65 40 l53 52 -1 -57 c-1 -51 2 -62 27 -89 l28 -30 -25 -24 c-31 -30
-31 -49 1 -79 l25 -24 -29 -31 c-16 -18 -28 -41 -27 -53 2 -23 2 -23 -161 -23
l-164 0 39 39 c35 35 58 81 65 129 2 12 13 17 37 18 56 2 61 3 57 17 -3 6 -24
14 -48 17 -40 4 -45 8 -50 35 -16 77 -81 146 -160 169 -43 12 -45 15 -50 56
-6 50 -29 67 -31 23z m898 -496 c3 -4 -84 -7 -195 -7 -198 0 -202 0 -202 21 0
11 14 34 30 51 17 16 30 32 30 36 0 3 -12 19 -27 34 l-27 28 27 28 c15 15 27
31 27 35 0 4 -14 20 -31 36 -29 28 -34 44 -30 111 1 22 29 -3 196 -170 107
-107 198 -198 202 -203z m-804 379 c46 -19 94 -72 111 -124 l16 -45 -108 -109
c-102 -104 -109 -109 -141 -104 -46 7 -104 47 -130 90 -60 96 -23 233 77 286
44 23 128 26 175 6z m897 -216 c88 -88 160 -162 160 -165 0 -3 -44 -5 -98 -5
l-97 0 -114 115 c-103 103 -113 116 -100 132 14 18 82 83 87 83 1 0 74 -72
162 -160z m-791 -47 c-13 -34 -55 -80 -91 -99 -48 -25 -44 -15 27 56 38 39 71
70 72 70 1 0 -2 -12 -8 -27z"/>
<path d="M503 621 c-45 -28 -61 -85 -38 -134 16 -35 64 -67 100 -67 25 0 72
27 89 52 9 12 16 39 16 60 0 82 -96 134 -167 89z m120 -42 c46 -57 -18 -146
-86 -120 -33 13 -48 35 -49 72 -2 70 89 102 135 48z"/>
<path d="M1511 802 c-23 -23 -29 -36 -25 -58 7 -43 49 -76 88 -70 88 14 87
135 -1 152 -27 5 -37 1 -62 -24z m83 -21 c22 -19 20 -47 -5 -65 -38 -26 -88 9
-67 48 19 37 42 42 72 17z"/>
</g>
</svg>
